<?xml version="1.0" encoding="iso-8859-1"?>
<!-- Generator: Adobe Illustrator 19.0.0, SVG Export Plug-In . SVG Version: 6.00 Build 0)  -->
<svg version="1.1" id="Capa_1" xmlns="http://www.w3.org/2000/svg" xmlns:xlink="http://www.w3.org/1999/xlink" x="0px" y="0px"
	 viewBox="0 0 512 512" style="enable-background:new 0 0 512 512;" xml:space="preserve">
<circle style="fill:#FEDB41;" cx="45.018" cy="75.007" r="14.999"/>
<circle style="fill:#FCBF29;" cx="435.001" cy="47.008" r="14.999"/>
<path style="fill:#1689FC;" d="M353.696,316.997h111.306c16.568,0,29.999,13.43,29.999,29.999c0,16.568-13.43,29.999-29.999,29.999
	H255.011"/>
<path style="fill:#FEA832;" d="M45.02,391.994c-8.291,0-14.999-6.709-14.999-14.999c0-1.582,0.146-3.53,0.352-5.801
	c0.908-9.58,2.549-27.392-20.448-56.043c-10.928-13.593-12.978-31.845-5.42-47.649c7.559-15.731,23.085-25.502,40.516-25.502
	c8.262,0,14.999-6.724,14.999-14.999c0-8.276-6.738-14.999-14.999-14.999c-24.813,0-44.998-20.185-44.998-44.998
	s20.185-44.998,44.998-44.998h59.997c2.314,0,4.629,0.542,6.709,1.582l33.163,16.581c7.412,3.706,10.4,12.714,6.709,20.126
	c-3.721,7.412-12.655,10.386-20.126,6.709l-29.999-14.999H45.02c-8.262,0-14.999,6.724-14.999,14.999
	c0,8.276,6.738,14.999,14.999,14.999c24.813,0,44.998,20.185,44.998,44.998s-20.185,44.998-44.998,44.998
	c-8.467,0-12.245,5.918-13.446,8.467c-0.967,2.021-3.721,9.126,1.729,15.907c30.614,38.113,28.153,64.772,26.952,77.575
	l-0.234,3.047C60.019,385.285,53.311,391.994,45.02,391.994z"/>
<path style="fill:#1689FC;" d="M331.148,207.477l87.275-43.637c14.823-7.412,20.829-25.429,13.417-40.252
	c-7.412-14.809-25.414-20.829-40.252-13.417L281.52,165.205l4.116,34.923L331.148,207.477z"/>
<path style="fill:#57555C;" d="M496.979,511.989H15.021c-8.291,0-14.999-6.709-14.999-14.999c0-8.291,6.709-14.999,14.999-14.999
	h481.957c8.291,0,14.999,6.709,14.999,14.999C511.978,505.28,505.269,511.989,496.979,511.989z"/>
<g>
	<path style="fill:#FEDB41;" d="M135.016,90.007c-8.291,0-14.999-6.709-14.999-14.999V15.01c0-8.291,6.709-14.999,14.999-14.999
		s14.999,6.709,14.999,14.999v59.997C150.015,83.298,143.307,90.007,135.016,90.007z"/>
	<path style="fill:#FEDB41;" d="M165.015,60.008h-59.997c-8.291,0-14.999-6.709-14.999-14.999s6.709-14.999,14.999-14.999h59.997
		c8.291,0,14.999,6.709,14.999,14.999S173.305,60.008,165.015,60.008z"/>
</g>
<g>
	<path style="fill:#FCBF29;" d="M467.98,271.999c-8.291,0-14.999-6.709-14.999-14.999v-59.997c0-8.291,6.709-14.999,14.999-14.999
		c8.291,0,14.999,6.709,14.999,14.999V257C482.979,265.291,476.27,271.999,467.98,271.999z"/>
	<path style="fill:#FCBF29;" d="M497.001,242.001h-59.997c-8.291,0-14.999-6.709-14.999-14.999c0-8.291,6.709-14.999,14.999-14.999
		h59.997c8.291,0,14.999,6.709,14.999,14.999C512,235.292,505.291,242.001,497.001,242.001z"/>
</g>
<g>
	<circle style="fill:#18A7FC;" cx="270.008" cy="122.005" r="44.998"/>
	<path style="fill:#18A7FC;" d="M315.008,376.995h-89.996c-5.918,0-11.718-1.758-16.64-5.039l-89.996-59.997
		c-13.783-9.185-17.504-27.816-8.32-41.6c9.185-13.784,27.772-17.548,41.6-8.32l82.437,54.959h58.664
		c7.295-33.061-1.348-67.336-23.612-93.043l-111.411-27.846c-16.068-4.014-25.839-20.302-21.825-36.385
		c4.028-16.068,20.375-25.853,36.385-21.825l119.995,29.999c5.273,1.318,10.093,4.043,13.93,7.896
		c45.101,45.101,60.583,110.693,40.413,171.189l-3.164,9.492C339.397,368.719,327.928,376.995,315.008,376.995z"/>
</g>
<g>
</g>
<g>
</g>
<g>
</g>
<g>
</g>
<g>
</g>
<g>
</g>
<g>
</g>
<g>
</g>
<g>
</g>
<g>
</g>
<g>
</g>
<g>
</g>
<g>
</g>
<g>
</g>
<g>
</g>
</svg>
